<?xml version="1.0" encoding="utf-8"?>
<!-- Generator: Adobe Illustrator 17.0.0, SVG Export Plug-In . SVG Version: 6.00 Build 0)  -->
<!DOCTYPE svg PUBLIC "-//W3C//DTD SVG 1.1 Tiny//EN" "http://www.w3.org/Graphics/SVG/1.1/DTD/svg11-tiny.dtd">
<svg version="1.1" baseProfile="tiny" id="sprite" xmlns="http://www.w3.org/2000/svg" xmlns:xlink="http://www.w3.org/1999/xlink" x="0px" y="0px" width="500px" height="500px" viewBox="0 0 500 500" overflow="scroll" xml:space="preserve">
	<g transform="translate(22 0)" id="ico-albums">
		<path fill="#954BB8" d="M34.55,8.278l0.02-0.014l-0.9-1.217L33.653,7.06c-0.422-0.523-0.871-1.032-1.357-1.518
			c-0.545-0.544-1.12-1.037-1.711-1.501l0.017-0.022l-1.229-0.886l-0.009,0.012C22.017-1.734,12.013-0.937,5.535,5.542
			C-1,12.077-1.745,22.2,3.281,29.566l-0.02,0.015l0.902,1.216l0.015-0.013c0.422,0.523,0.872,1.033,1.358,1.519
			c0.544,0.544,1.12,1.036,1.71,1.501l-0.016,0.021l1.229,0.887l0.008-0.013c7.348,4.879,17.352,4.082,23.83-2.396
			C38.831,25.766,39.575,15.644,34.55,8.278z M29.7,5.268c0.527,0.417,1.039,0.857,1.525,1.344c0.432,0.433,0.836,0.883,1.213,1.347
			l-8.55,6.338c-0.058-0.061-0.097-0.132-0.156-0.191c-0.081-0.082-0.177-0.136-0.261-0.213c0.002,0.001,0.003,0.001,0.004,0.003
			L29.7,5.268z M22.661,22.668c-2.064,2.066-5.427,2.066-7.493,0c-2.065-2.065-2.065-5.428,0-7.493c2.066-2.067,5.428-2.067,7.493,0
			C24.728,17.241,24.728,20.603,22.661,22.668z M6.605,6.611c5.934-5.933,15.12-6.679,21.872-2.238l-6.231,8.638
			c0.003,0.002,0.005,0.003,0.006,0.004c-2.597-1.468-5.942-1.122-8.153,1.09c-2.23,2.229-2.566,5.615-1.053,8.222l-8.549,6.337
			C-0.08,21.896,0.619,12.599,6.605,6.611z M8.131,32.577c-0.527-0.418-1.039-0.858-1.526-1.345
			c-0.432-0.433-0.836-0.882-1.213-1.347l8.55-6.338c0.057,0.061,0.097,0.132,0.156,0.191c0.08,0.08,0.173,0.134,0.256,0.209
			L8.131,32.577z M31.226,31.232c-5.934,5.933-15.12,6.68-21.873,2.238l6.232-8.638c-0.002-0.002-0.004-0.003-0.007-0.006
			c2.598,1.468,5.942,1.123,8.154-1.088c2.231-2.229,2.565-5.615,1.053-8.223l8.55-6.337C37.911,15.949,37.212,25.245,31.226,31.232
			z M18.935,15.176c-2.08,0-3.766,1.685-3.766,3.765s1.687,3.766,3.766,3.766c2.079,0,3.766-1.686,3.766-3.766
			S21.014,15.176,18.935,15.176z M18.935,21.192c-1.242,0-2.252-1.009-2.252-2.251c0-1.242,1.01-2.252,2.252-2.252
			c1.242,0,2.252,1.01,2.252,2.252C21.187,20.183,20.177,21.192,18.935,21.192z"/>
	</g>

	<g transform="translate(70 0)" id="ico-facebook-artist">
	<path fill="#954BB8" d="M30.275,19.68c1.007,0,3.316,1.393,4.79,3.663l1.271,1.951v0.441h-0.005v1.514
	c0,4.131-4.396,7.57-6.056,7.57c-0.003,0-0.006,0-0.009,0c-0.278-0.568-0.177-2.594-0.103-4.09c0.053-1.049,0.111-2.238,0.111-3.48
	s-0.059-2.43-0.111-3.48c-0.074-1.496-0.176-3.521,0.103-4.088C30.27,19.68,30.272,19.68,30.275,19.68 M7.569,19.68
	c0.003,0,0.006,0,0.009,0c0.278,0.567,0.177,2.592,0.104,4.088c-0.053,1.051-0.112,2.238-0.112,3.48s0.059,2.432,0.112,3.48
	c0.074,1.496,0.174,3.521-0.104,4.09c-0.003,0-0.006,0-0.009,0c-1.653,0-6.02-3.412-6.055-7.52l0.004-0.053v-0.068v-1.902
	l1.269-1.945C4.26,21.069,6.565,19.68,7.569,19.68 M18.927,0C8.475,0,0.004,8.471,0.004,18.922c0,3.615,0,6.557,0,8.256
	c0,0.023-0.004,0.047-0.004,0.07c0,5.016,5.06,9.084,7.569,9.084s1.514-4.068,1.514-9.084s0.995-9.083-1.514-9.083
	c-1.638,0-4.357,1.738-6.051,4.336c0-1.082,0-2.275,0-3.58c0-9.6,7.81-17.409,17.409-17.409s17.409,7.809,17.409,17.409
	c0,1.202,0,2.438,0,3.596c-1.695-2.608-4.42-4.352-6.061-4.352c-2.508,0-1.514,4.067-1.514,9.083s-0.994,9.084,1.514,9.084
	c2.509,0,7.569-4.068,7.569-9.084h0.005c0-1.969,0-5.492,0-8.326C37.85,8.471,29.379,0,18.927,0L18.927,0z"/>
	</g>

	<g transform="translate(120 0)" id="ico-even">
		<path fill="#954BB8" d="M27.129,2.72h-1.355V2.04c0-1.126-0.912-2.04-2.035-2.04s-2.035,0.914-2.035,2.04v0.68h-4.069V2.04
			C17.635,0.914,16.723,0,15.6,0s-2.035,0.914-2.035,2.04v0.68H9.495V2.04C9.495,0.914,8.584,0,7.46,0
			C6.337,0,5.426,0.914,5.426,2.04v0.68H4.069C1.822,2.72,0,4.546,0,6.8v21.76c0,2.254,1.822,4.08,4.069,4.08h23.06
			c2.248,0,4.07-1.826,4.07-4.08V6.8C31.2,4.546,29.377,2.72,27.129,2.72z M23.061,2.04c0-0.375,0.305-0.68,0.678-0.68
			s0.678,0.306,0.678,0.68v2.72c0,0.374-0.305,0.68-0.678,0.68s-0.678-0.306-0.678-0.68V2.04z M14.921,2.04
			c0-0.375,0.305-0.68,0.679-0.68s0.678,0.306,0.678,0.68v2.72c0,0.374-0.304,0.68-0.678,0.68s-0.679-0.306-0.679-0.68V2.04z
			 M6.782,2.04c0-0.375,0.305-0.68,0.678-0.68c0.374,0,0.679,0.306,0.679,0.68v2.72c0,0.374-0.305,0.68-0.679,0.68
			c-0.373,0-0.678-0.306-0.678-0.68V2.04z M29.842,28.56c0,1.5-1.215,2.72-2.713,2.72H4.069c-1.497,0-2.713-1.22-2.713-2.72V10.88
			h28.486V28.56z M29.842,9.52H1.356V6.8c0-1.499,1.216-2.72,2.713-2.72h1.356v0.68c0,1.126,0.911,2.04,2.034,2.04
			c1.124,0,2.035-0.914,2.035-2.04V4.08h4.069v0.68c0,1.126,0.912,2.04,2.035,2.04s2.035-0.914,2.035-2.04V4.08h4.069v0.68
			c0,1.126,0.912,2.04,2.035,2.04s2.035-0.914,2.035-2.04V4.08h1.355c1.498,0,2.713,1.221,2.713,2.72V9.52z M9.495,23.121H5.426
			v4.08h4.069V23.121z M8.139,25.84H6.782v-1.36h1.356V25.84z M9.495,14.96H5.426v4.081h4.069V14.96z M8.139,17.68H6.782v-1.36
			h1.356V17.68z M17.635,23.121h-4.07v4.08h4.07V23.121z M16.277,25.84h-1.356v-1.36h1.356V25.84z M17.635,14.96h-4.07v4.081h4.07
			V14.96z M16.277,17.68h-1.356v-1.36h1.356V17.68z M25.774,23.121h-4.07v4.08h4.07V23.121z M24.417,25.84h-1.355v-1.36h1.355V25.84
			z M25.774,14.96h-4.07v4.081h4.07V14.96z M24.417,17.68h-1.355v-1.36h1.355V17.68z"/>
	</g>

	<g transform="translate(170 0)" id="ico-mixes">
		<path fill="#954BB8" d="M19.68,9.086H0V10.6h19.68V9.086z M19.68,15.142H0v1.514h19.68V15.142z M19.68,21.196H0v1.515h19.68
			V21.196z M27.249,9.234L37.846,10.6c0-7.569-6.057-9.083-12.111-10.6v28.767H21.07c-4.447,0-5.932,2.354-5.932,4.503
			c0,1.824,1.365,4.579,6.055,4.579c6.706,0,6.055-5.384,6.055-9.082V9.234z M27.249,1.958c5.031,1.36,8.262,2.856,8.947,6.904
			l-8.947-1.153V1.958z M24.625,35.294c-0.681,0.689-1.835,1.041-3.432,1.041c-4.322,0-4.541-2.555-4.541-3.065
			c0-1.898,1.611-2.989,4.418-2.989h4.665v1.161h0.004C25.694,32.968,25.477,34.431,24.625,35.294z"/>
	</g>

	<g transform="translate(220 0)" id="ico-tracks">
		<path fill="#954BB8" d="M9.875,3.291v25.667c-1.046-0.609-2.502-0.989-4.115-0.989C2.58,27.969,0,29.441,0,31.26
			c0,1.816,2.58,3.29,5.761,3.29s5.761-1.474,5.761-3.29V9.678l21.398-2.905v18.895c-1.046-0.61-2.502-0.99-4.115-0.99
			c-3.181,0-5.761,1.474-5.761,3.291c0,1.816,2.58,3.291,5.761,3.291s5.761-1.475,5.761-3.291V0L9.875,3.291z M5.761,32.904
			c-2.673,0-4.115-1.168-4.115-1.645c0-0.478,1.442-1.646,4.115-1.646s4.115,1.169,4.115,1.646
			C9.875,31.736,8.434,32.904,5.761,32.904z M32.697,5.143L11.521,8.019V4.73l21.398-2.851v3.234L32.697,5.143z M28.804,29.613
			c-2.673,0-4.115-1.168-4.115-1.645s1.442-1.646,4.115-1.646s4.115,1.169,4.115,1.646S31.477,29.613,28.804,29.613z"/>
	</g>

	<g transform="translate(270 0)" id="ico-venu">
		<path fill="#954BB8" d="M25.734,0H1.514C0.678,0,0,0.677,0,1.514v31.79c0,0.838,0.678,1.515,1.514,1.515h1.514v1.514h3.027v-1.514
			h15.138v1.514h3.027v-1.514h1.514c0.836,0,1.514-0.677,1.514-1.515V1.514C27.248,0.677,26.57,0,25.734,0z M25.734,33.304H1.514
			V1.514h24.22V33.304z M13.625,22.708c5.016,0,9.082-4.066,9.082-9.083s-4.066-9.083-9.082-9.083c-5.017,0-9.083,4.065-9.083,9.083
			S8.608,22.708,13.625,22.708z M13.625,6.056c4.172,0,7.568,3.396,7.568,7.569c0,4.173-3.396,7.57-7.568,7.57
			c-4.174,0-7.57-3.397-7.57-7.57C6.055,9.451,9.451,6.056,13.625,6.056z M13.625,19.681c3.344,0,6.055-2.71,6.055-6.056
			c0-3.344-2.711-6.056-6.055-6.056c-3.345,0-6.056,2.711-6.056,6.056C7.569,16.971,10.28,19.681,13.625,19.681z M13.625,9.083
			c2.504,0,4.541,2.038,4.541,4.542s-2.037,4.542-4.541,4.542c-2.505,0-4.542-2.037-4.542-4.542S11.12,9.083,13.625,9.083z
			 M13.625,24.222c-1.673,0-3.028,1.355-3.028,3.027c0,1.674,1.355,3.027,3.028,3.027c1.672,0,3.027-1.354,3.027-3.027
			C16.652,25.578,15.297,24.222,13.625,24.222z M13.625,28.763c-0.835,0-1.515-0.678-1.515-1.514s0.679-1.514,1.515-1.514
			c0.834,0,1.514,0.678,1.514,1.514S14.459,28.763,13.625,28.763z"/>
	</g>

	<g transform="translate(320 0)" id="ico-video">
		<path fill="#954BB8" d="M26.059,0H1.637C0.732,0,0,0.734,0,1.642v23.121c0,0.906,0.732,1.641,1.637,1.641h24.422
			c0.906,0,1.638-0.734,1.638-1.641V1.642C27.697,0.734,26.964,0,26.059,0z M26.059,24.763H1.637V1.642h24.422V24.763z M29.333,9.85
			v6.567l11.461,6.565V3.283L29.333,9.85z M39.156,20.155l-8.186-4.691v-4.662l8.186-4.69V20.155z"/>
	</g>
</svg>